<svg width="1440" height="407" viewBox="0 0 1440 407" fill="none" xmlns="http://www.w3.org/2000/svg">
<g clip-path="url(#clip0_11_35)">
<path d="M375.667 208.874C369.851 216.279 359.071 216.931 349.653 216.953C234.903 217.215 115.359 219.986 -1 221.09V124.18C15.3557 121.372 31.8051 119.302 48.3886 118.565C158.819 113.661 264.227 167.796 374.695 171.78C375.984 186.044 375.824 194.55 375.667 208.872V208.874Z" fill="#F0DA78"/>
<path d="M1148.74 228.941H1440.23V131.151C1288.68 104.928 1129.49 122.801 987.991 183.263C1044.08 196.124 1092.66 216.08 1148.74 228.941Z" fill="#F0DA78"/>
<path d="M898.099 198.951C871.073 187.769 844.047 176.586 817.02 165.402C796.56 156.934 776.005 148.439 754.521 143.083C669.523 121.904 581.009 151.643 498.659 181.503C589.489 226.075 692.37 248.932 792.955 237.986C828.536 234.115 868.801 219.509 898.099 198.953V198.951Z" fill="#F0DA78"/>
<path d="M1440.23 227.492C1381.6 218.374 1323.32 206.347 1264.96 197.525C1174.83 183.899 1095.53 157.313 1004.3 152.905C917.082 148.692 823.984 190.992 737.847 198.225C670.327 203.893 607.02 175.79 541.997 163.003C473.293 149.497 431.169 147.408 362.008 156.595C303.226 164.399 218.536 199.493 158.415 197.525C104.284 195.752 51.6039 176.36 -1 159.122V408.233H1440.23V227.492Z" fill="#DAC857"/>
<path d="M452.424 408.233C547.181 318.901 659.706 271.996 752.76 247.472C977.672 188.192 1209.51 197.045 1440.23 199.379V408.233H452.424Z" fill="#A07F38"/>
<path d="M626.691 292.128C623.471 284.772 620.034 277.125 613.797 272.065C607.182 266.7 598.178 265 589.688 265.699C586.287 265.975 582.325 266.378 578.281 266.949C570.276 268.076 562.265 263.977 558.962 256.598C553.897 245.283 541.635 236.847 529.126 238.324C524.434 238.878 519.382 240.52 515.217 238.294C511.782 236.458 510.116 232.567 508.189 229.183C499.253 213.468 480.374 205.113 462.299 205.441C450.248 205.659 438.574 209.237 427.759 214.692C419.289 218.964 409.22 218.285 401.51 212.759C390.157 204.624 374.704 201.758 360.655 204.065C341.354 207.238 320.997 224.025 305.94 236.509C341.015 239.959 374.462 242.757 409.435 247.562C484.665 257.899 560.504 273.21 626.691 292.128Z" fill="#13503E"/>
<path d="M222.845 247.317C221.884 236.667 218.035 226.29 211.82 217.588C196.625 196.319 168.824 187.012 142.692 187.656C121.422 188.181 101.701 191.998 84.0221 202.488C78.3068 205.877 71.0373 204.976 66.2895 200.327C64.2119 198.294 62.0968 196.306 59.7221 194.642C50.2048 187.968 37.4248 187.302 26.2494 190.503C20.6957 192.095 15.9651 194.247 11.4826 196.884C7.60704 199.163 3.17641 199.825 -0.999023 199.044V258.66C73.6109 251.393 149.653 249.654 222.847 247.317H222.845Z" fill="#13503E"/>
<path d="M457.627 408.233C471.048 395.119 489.572 380.201 513.653 361.705C564.508 322.64 629.974 290.988 629.974 290.988C626.968 290.076 623.93 289.172 620.853 288.276C456.504 240.468 191.945 218.488 -1 233.158V408.233H457.627Z" fill="#BBA13B"/>
<path d="M341.111 339.106C361.086 341.24 384.44 343.484 404.414 345.619C440.087 349.432 476.015 353.295 510.308 363.828C505.008 366.445 479.649 387.746 457.748 408.234H264.47L252.697 339.328C252.697 339.328 341.115 339.482 341.111 339.108V339.106Z" fill="#BBA13B"/>
<path d="M266.779 334.667C271.993 359.225 276.656 388.321 279.6 408.233M285.179 334.667C285.508 336.785 292.769 380.159 297.419 408.233M305.112 334.667C305.441 336.785 312.702 380.159 317.352 408.233" stroke="#97813A" stroke-width="1.33398" stroke-miterlimit="10"/>
<path d="M325.812 334.667C326.141 336.785 333.402 380.159 338.052 408.233M348.02 341.881C348.341 343.951 354.627 382.283 358.835 408.233M366.674 345.459C366.992 347.504 373.014 383.368 377.145 408.233M388.141 348.524C388.461 350.587 394.145 384.86 397.974 408.233M412.163 353.635C412.476 355.654 417.293 386.431 420.662 408.233M433.246 353.635C433.559 355.654 438.376 386.431 441.746 408.233M460.08 358.618C460.349 360.36 463.29 381.8 465.845 400.63M484.997 362.834C485.051 363.193 486.157 370.561 487.598 380.202" stroke="#97813A" stroke-width="1.33398" stroke-miterlimit="10" stroke-linecap="round" stroke-linejoin="round"/>
<path d="M199.031 287.199C199.031 287.199 203.12 245.422 205.165 229.963C257.721 231.963 323.351 234.588 381.88 243.504C370.162 271.045 352.827 311.564 341.111 339.105C340.992 339.944 252.698 339.325 252.698 339.325L199.031 287.198V287.199Z" fill="#97813A"/>
<path d="M205.931 236.671C205.547 237.436 321.156 244.496 376.385 250.404M205.42 251.489C205.037 252.256 315.661 260.466 370.889 266.374M201.706 269.308C201.34 270.083 308.638 276.821 363.99 281.45M199.605 287.008C199.966 286.531 297.352 292.822 355.982 297.423M222.027 307.608C249.999 309.089 307.424 311.73 350.486 314.623M241.201 326.656C269.656 326.805 310.017 326.976 343.566 327.627" stroke="#7A6635" stroke-width="1.33398" stroke-miterlimit="10" stroke-linecap="round" stroke-linejoin="round"/>
<path d="M205.165 229.963L199.542 287.966L-1 308.433V233.09C60.432 227.834 129.126 225.738 205.165 229.963Z" fill="#9B873B"/>
<path d="M57.0102 230.253C57.1558 234.191 57.9084 238.973 58.2847 242.895C60.1634 262.476 62.042 282.057 63.9221 301.64M33.9386 231.444C34.0842 235.381 38.597 285.255 40.4757 304.838M10.2441 234.043C10.3883 237.98 10.7646 241.907 11.1424 245.83C13.021 265.411 14.9011 286.273 16.7784 305.853M79.9779 229.131L86.6852 298.996M106.634 229.131L112.64 295.843M126.186 228.621L132.304 293.843M145.875 228.621L151.433 290.905M167.038 229.754L171.688 289.287M187.1 229.754L190.598 287.2" stroke="#BBA13B" stroke-width="1.33398" stroke-miterlimit="10" stroke-linecap="round" stroke-linejoin="round"/>
<path d="M75.6631 300.608C82.0156 331.91 84.5186 379.493 85.486 408.233H264.241C260.572 386.795 255.205 355.218 252.698 339.327C252.698 339.327 217.231 302 199.032 287.199C160.138 289.665 75.6631 300.608 75.6631 300.608Z" fill="#AF913A"/>
<path d="M80.9209 317.919L225.481 314.625M83.3301 300.645L209.904 297.762M83.3301 337.794L243.113 332.459M83.3301 359.259L252.696 354.658M87.0024 380.721L256.368 376.121M87.0024 403.115L256.368 398.515" stroke="#97813A" stroke-width="1.33398" stroke-miterlimit="10" stroke-linecap="round" stroke-linejoin="round"/>
<path d="M55.263 301.737C57.4603 337.268 60.129 372.772 63.2678 408.233M29.7014 301.737C31.8987 337.268 34.5675 372.772 37.7063 408.233M8.30664 301.737C10.5054 337.268 13.1741 372.772 16.3129 408.233" stroke="#9B873B" stroke-width="1.33398" stroke-miterlimit="10"/>
<path d="M339.586 339.837L381.832 243.434C381.832 243.434 400.722 245.416 424.43 248.616C450.63 252.152 482.544 257.065 497.645 259.988C498.805 260.211 500.055 260.449 501.385 260.697C516.157 263.462 541.01 267.739 564.219 273.147C599.606 281.394 632.579 291.974 632.579 291.974L510.31 363.828L339.587 339.837H339.586Z" fill="#AF913A"/>
<path d="M356.07 343.032C368.377 316.727 383.823 276.591 399.993 246.475M374.853 343.415C387.161 317.11 401.455 279.178 417.626 249.063M390.696 351.08C403.006 324.775 420.047 281.478 436.218 251.362M413.697 351.08C426.007 324.775 441.227 284.736 457.397 254.62M437.464 354.657C449.774 328.352 464.418 288.376 480.589 258.261M457.653 358.233C469.851 332.163 485.411 291.854 501.429 261.823M483.721 362.834C495.865 336.879 511.343 296.811 527.283 266.821M510.299 362.834C521.911 338.016 536.571 300.292 551.771 270.817M544.426 341.32C553.27 320.89 563.22 297.033 573.49 276.374M581.355 319.656C586.633 307.441 592.171 294.862 597.832 283.052" stroke="#BBA13B" stroke-width="1.99971" stroke-miterlimit="10" stroke-linecap="round" stroke-linejoin="round"/>
<path d="M905.524 45.6515C905.524 70.8668 885.082 91.306 859.867 91.306C834.65 91.306 814.208 70.8668 814.208 45.6515C814.208 20.4392 834.65 0 859.867 0C885.082 0 905.524 20.4392 905.524 45.6515Z" fill="#8EFF33"/>
<path d="M232.196 161.951L229.176 231.124L240.899 231.64C241.183 229.345 241.063 161.949 241.063 161.949H232.196V161.951Z" fill="#EC6B38"/>
<path d="M278.154 174.378C278.154 174.378 297.5 161.596 289.899 145.016C284.619 133.495 272.84 130.028 263.86 131.028C262.234 124.77 254.661 107.134 234.261 105.598C221.721 104.654 208.491 110.037 200.665 119.768C193.411 128.785 195.93 143.289 195.93 143.289C189.7 152.487 188.414 170.952 194.282 179.667C202.744 192.242 219.756 198.108 234.208 193.649C234.208 193.649 245.679 203.164 262.26 196.805C276.032 191.524 278.153 174.378 278.153 174.378H278.154Z" fill="#13503E"/>
<path d="M235.134 122.652C235.134 124.074 233.982 125.224 232.56 125.224C231.14 125.224 229.989 124.072 229.989 122.652C229.989 121.231 231.141 120.079 232.56 120.079C233.982 120.079 235.134 121.231 235.134 122.652Z" fill="#8EFF33"/>
<path d="M216.431 140.791C215.165 141.438 213.616 140.935 212.969 139.669C212.326 138.403 212.826 136.855 214.092 136.211C215.358 135.565 216.908 136.068 217.552 137.332C218.198 138.598 217.696 140.146 216.431 140.791Z" fill="#8EFF33"/>
<path d="M237.705 146.918C237.705 148.339 236.553 149.491 235.134 149.491C233.713 149.491 232.561 148.339 232.561 146.918C232.561 145.496 233.713 144.346 235.134 144.346C236.554 144.346 237.705 145.498 237.705 146.918Z" fill="#8EFF33"/>
<path d="M298.552 163.254L295.419 234.99L307.247 235.582C307.531 233.287 307.419 163.252 307.419 163.252H298.552V163.254Z" fill="#EC6B38"/>
<path d="M259.181 174.378C259.181 174.378 239.836 161.596 247.437 145.016C252.716 133.495 264.496 130.028 273.475 131.028C275.102 124.77 282.674 107.134 303.073 105.598C315.612 104.654 328.843 110.037 336.669 119.768C343.923 128.785 341.404 143.289 341.404 143.289C347.634 152.487 352.19 169.09 345.114 180.787C334.766 197.89 317.58 198.108 303.127 193.65C303.127 193.65 291.656 203.165 275.074 196.806C261.304 191.526 259.183 174.379 259.183 174.379L259.181 174.378Z" fill="#13725A"/>
<path d="M290.385 138.5C290.385 139.922 289.233 141.073 287.814 141.073C286.392 141.073 285.24 139.922 285.24 138.5C285.24 137.08 286.392 135.93 287.814 135.93C289.234 135.93 290.385 137.082 290.385 138.5Z" fill="#8EFF33"/>
<path d="M272.016 156.866C272.016 158.286 270.864 159.437 269.446 159.437C268.024 159.437 266.872 158.285 266.872 156.866C266.872 155.445 268.024 154.296 269.446 154.296C270.866 154.296 272.016 155.446 272.016 156.866Z" fill="#8EFF33"/>
<path d="M323.171 138.5C323.171 139.922 322.019 141.073 320.597 141.073C319.177 141.073 318.026 139.922 318.026 138.5C318.026 137.08 319.178 135.93 320.597 135.93C322.019 135.93 323.171 137.082 323.171 138.5Z" fill="#8EFF33"/>
<path d="M304.748 120.079C304.748 121.501 303.596 122.652 302.177 122.652C300.756 122.652 299.604 121.501 299.604 120.079C299.604 118.659 300.756 117.509 302.177 117.509C303.597 117.509 304.748 118.661 304.748 120.079Z" fill="#8EFF33"/>
<path d="M304.748 159.596C304.748 161.015 303.596 162.167 302.177 162.167C300.756 162.167 299.604 161.014 299.604 159.596C299.604 158.175 300.756 157.025 302.177 157.025C303.597 157.025 304.748 158.177 304.748 159.596Z" fill="#8EFF33"/>
<path d="M1341.56 247.786C1341.56 258.8 1337.1 267.726 1331.59 267.726C1326.09 267.726 1321.62 258.801 1321.62 247.786C1321.62 236.773 1326.09 227.845 1331.59 227.845C1337.1 227.845 1341.56 236.773 1341.56 247.786Z" fill="#194437"/>
<path d="M1273.13 247.786C1273.13 258.8 1268.66 267.726 1263.15 267.726C1257.65 267.726 1253.18 258.801 1253.18 247.786C1253.18 236.773 1257.65 227.845 1263.15 227.845C1268.66 227.845 1273.13 236.773 1273.13 247.786Z" fill="#194437"/>
<path d="M1281.86 377.395C1283.13 334.186 1286.89 291.06 1288.16 247.851C1271.31 249.847 1257.89 250.715 1240.96 249.599C1242.28 269.968 1246.9 329.997 1247.75 357.706C1247.98 365.221 1244.26 372.306 1237.93 376.356C1232.68 379.712 1227.12 383.095 1225.15 386.003C1221.07 392.022 1221.92 401.865 1221.92 401.865C1231.16 405.713 1258.71 396.109 1281.86 377.395Z" fill="#342B2A"/>
<path d="M875.39 400.14C874.356 384.987 882.434 356.668 890.079 342.87C891.693 339.952 893.314 337.03 895.32 334.285C901.34 326.035 910.533 319.761 919.545 313.653C922.265 331.724 916.789 351.647 904.697 366.867C895.569 378.357 882.764 387.823 875.39 400.141V400.14Z" fill="#DAC857"/>
<path d="M878.253 395.669C885.179 381.272 890.981 365.648 898.378 351.485C904.925 338.946 911.84 326.594 919.106 314.458" stroke="#97813A" stroke-width="1.33398" stroke-miterlimit="10" stroke-linecap="round" stroke-linejoin="round"/>
<path d="M872.825 366.919C867.199 350.874 861.575 334.827 855.95 318.785C854.203 313.803 852.451 308.798 851.433 303.617C849.063 291.549 850.757 278.958 848.361 266.896C845.653 253.264 837.935 241.241 830.37 229.584C833.604 239.844 835.088 252.066 837.275 262.598C838.186 266.988 839.006 271.49 838.386 275.929C837.135 284.884 830.184 292.533 830.083 301.572C830.01 308.044 833.477 313.96 836.834 319.493C848.907 339.394 860.981 359.293 873.056 379.196L872.824 366.918L872.825 366.919Z" fill="#DAC857"/>
<path d="M830.514 230.201C836.99 244.564 843.585 259.444 843.782 275.197C843.893 283.902 842.026 292.571 842.512 301.264C843.017 310.244 846.01 318.888 849.323 327.25C855.888 343.823 863.818 359.854 873.008 375.129" stroke="#97813A" stroke-width="1.33398" stroke-miterlimit="10" stroke-linecap="round" stroke-linejoin="round"/>
<path d="M877.378 395.359C883.671 388.337 890.128 381.187 898.369 376.604C899.919 375.743 901.75 374.961 903.415 375.575C911.99 378.73 921.686 379.105 929.082 384.471C931.816 386.455 934.479 388.93 935.295 392.208C935.693 393.81 935.053 394.464 934.521 396.028C933.989 397.593 933.025 398.969 932.031 400.29C930.695 402.063 929.28 403.777 927.865 405.49L925.603 408.232H920.257C919.806 405.21 919.307 401.424 919.092 398.243C918.854 394.767 918.305 391.154 916.275 388.324C908.643 387.318 900.434 388.31 893.109 390.674C891.239 391.28 889.375 392.002 887.785 393.158C886.32 394.221 884.666 395.504 883.496 396.88C881.117 399.668 878.452 402.376 877.048 405.759L877.381 395.357L877.378 395.359Z" fill="#DAC857"/>
<path d="M897.018 377.388C891.031 381.011 882.659 388.134 877.124 395.378C877.124 395.378 876.825 404.624 877.124 406.784C877.487 406.095 880.563 401.224 881.008 400.585C884.829 395.098 890.194 391.217 896.695 389.648C904.064 387.87 910.584 387.938 916.273 388.326C912.001 384.848 904.956 380.39 899.911 378.181C898.986 377.774 897.132 377.317 897.018 377.387V377.388Z" fill="#374E34"/>
<path d="M923.338 408.233C924.46 405.802 925.434 403.313 926.023 400.706C926.989 396.432 926.823 391.739 924.641 387.938C921.89 383.145 916.51 380.571 911.348 378.595C907.989 377.309 904.583 376.153 901.136 375.129" stroke="#97813A" stroke-width="1.33398" stroke-miterlimit="10" stroke-linecap="round" stroke-linejoin="round"/>
<path d="M870.278 408.233L861.678 398.097C858.357 394.183 854.921 390.175 850.383 387.776C846.077 385.5 841.112 384.853 836.255 384.501C833.759 384.318 831.115 384.233 828.906 385.409C826.368 386.762 824.908 389.527 824.053 392.271C822.764 396.415 822.523 400.882 823.363 405.144C818.835 399.892 815.686 391.928 817.387 385.207C819.089 378.485 824.217 372.726 830.695 370.259C836.575 368.021 851.539 368.096 851.556 368.659C855.357 371.576 860.334 373.966 862.417 378.279C863.585 380.704 871.322 397.068 873.72 401.418C873.72 401.418 873.949 404.62 874.272 408.233H870.281H870.278Z" fill="#DAC857"/>
<path d="M874.075 405.076C870.427 399.523 866.442 394.193 862.144 389.126C858.336 384.64 854.172 380.272 848.928 377.605C843.683 374.939 837.13 374.215 831.974 377.048C828.106 379.176 824.461 381.568 822.353 385.447C819.707 390.309 820.394 400.473 823.365 405.142" stroke="#97813A" stroke-width="1.33398" stroke-miterlimit="10" stroke-linecap="round" stroke-linejoin="round"/>
<path d="M874.301 309.115C874.887 342.207 875.221 375.876 875.286 408.234" stroke="#374E34" stroke-width="3.99943" stroke-miterlimit="10"/>
<path d="M875.165 323.419C874.949 319.903 872.967 316.789 871.271 313.699C862.814 298.287 860.563 280.081 861.85 262.548C863.137 245.014 867.765 227.92 872.371 210.954C875.569 219.432 879.556 231.21 882.756 239.69C886.538 249.712 883.312 261.248 883.479 271.805C883.77 289.985 884.089 307.271 875.167 323.42L875.165 323.419Z" fill="#374E34"/>
<path d="M682.588 244.193C683.295 284.018 683.635 350.916 683.581 408.233" stroke="#374E34" stroke-width="3.99943" stroke-miterlimit="10"/>
<path d="M681.652 247.711C669.679 240.242 658.553 221.599 654.036 208.231C650.924 199.022 647.388 189.956 643.44 181.072C642.057 177.958 640.554 174.772 638.003 172.512C635.232 170.056 631.548 168.973 628.109 167.592C621.494 164.938 615.414 160.957 610.338 155.957C615.426 177.362 639.896 191.766 644.916 213.187C645.89 217.343 645.986 221.658 646.808 225.846C647.911 231.47 650.3 236.773 653.166 241.737C659.807 253.237 670.592 263.462 681.65 270.816V247.709L681.652 247.711Z" fill="#374E34"/>
<path d="M685.668 408.233C692.242 401.933 700.496 394.257 707.735 389.664C712.571 386.594 719.755 382.533 725.038 384.745C726.587 389.109 729.291 396.524 730.84 400.885C728.325 400.79 725.786 400.732 723.245 400.679C716.585 400.541 710.169 403.14 705.506 407.896L705.175 408.233H685.667H685.668Z" fill="#374E34"/>
<path d="M725.039 384.745C730.341 386.612 735.972 390.079 740.416 393.518C742.245 394.934 744.01 396.502 745.205 398.482C746.954 401.371 747.331 404.829 747.504 408.233H732.656C732.707 407.521 732.711 406.808 732.624 406.099C732.418 404.404 731.709 402.817 731.007 401.258C728.649 396.04 726.263 389.792 725.041 384.745H725.039Z" fill="#DAC857"/>
<path d="M685.047 269.472C678.866 249.252 671.063 231.268 664.883 211.046C660.392 196.356 655.869 181.47 655.217 166.123C654.613 151.913 657.351 137.802 659.005 123.673C661.404 103.15 661.514 82.4371 661.619 61.7759C687.909 128.374 694.887 198.555 685.047 269.472Z" fill="#97813A"/>
<path d="M707.555 294.351C712.352 289.033 713.609 288.791 720.106 285.778C726.604 282.767 734.41 281.955 740.903 284.978C745.863 287.289 749.606 291.55 753.036 295.816C763.698 309.075 772.856 323.538 780.282 338.845C751.366 334.764 723.99 318.485 707.555 294.353V294.351Z" fill="#DAC857"/>
<path d="M707.979 294.968C719.994 288.775 731.069 293.42 739.459 299.884C747.851 306.35 754.362 314.881 761.531 322.68C766.906 328.529 772.908 334.127 779.863 337.816" stroke="#97813A" stroke-width="1.33398" stroke-miterlimit="10" stroke-linecap="round" stroke-linejoin="round"/>
<path d="M661.617 290.92C667.991 303.679 671.003 318.098 670.265 332.341C669.995 337.606 669.221 342.841 669.17 348.111C669.018 364.019 678.236 381.233 684.5 395.86V398.204C664.72 381.511 657.555 354.037 656.627 328.173C656.47 323.822 655.339 317.89 652.375 314.698C653.417 307.535 655.201 300.398 659.18 294.35C659.965 293.159 660.426 292.127 661.618 290.919L661.617 290.92Z" fill="#374E34"/>
<path d="M656.153 367.254C650.88 342.211 649.616 314.257 661.617 290.92C653.429 288.827 643.654 287.966 633.641 289.438C636.583 308.429 636.739 327.229 644.803 344.674C648.653 353.006 652.609 361.75 656.153 367.254Z" fill="#DAC857"/>
<path d="M647.629 288.702C643.387 314.865 645.838 344.731 655.823 369.283" stroke="#97813A" stroke-width="1.33398" stroke-miterlimit="10" stroke-linecap="round" stroke-linejoin="round"/>
<path d="M718.469 277.235C722.607 266.694 723.502 264.618 723.711 254.448C723.764 251.811 723.751 249.099 722.777 246.648C721.805 244.199 718.528 240.921 715.898 240.715C713.45 240.522 711.13 242.05 709.665 244.022C708.2 245.995 698.379 263.835 696.688 270.891C697.127 272.744 697.122 274.358 697.56 276.212C697.94 277.813 698.321 279.421 698.881 280.97C699.405 282.421 700.082 283.809 700.788 285.18C702.639 288.764 704.219 292.076 707.554 294.351C709.643 293.417 717.859 278.786 718.469 277.234V277.235Z" fill="#8EFF33"/>
<path d="M701.272 272.762L716.68 241.823M703.441 284.133L721.625 246.769M708.854 246.944C713.587 250.258 718.145 253.828 722.496 257.631M704.4 254.759C708.368 257.215 712.176 259.93 715.795 262.878C717.787 264.503 719.725 266.201 721.66 267.896M701.505 262.461C702.699 263.452 703.893 264.439 705.085 265.428C709.533 269.109 713.982 272.795 718.154 276.787M700.757 272.475C705.561 276.608 709.191 279.73 713.997 283.865" stroke="#F48035" stroke-width="1.33398" stroke-miterlimit="10" stroke-linecap="round"/>
<path d="M707.554 294.351C700.885 283.786 698.403 270.654 700.756 258.383C701.796 252.971 703.725 247.773 705.133 242.445C706.985 235.457 707.942 228.235 707.977 221.006C704.6 234.171 699.818 246.824 695.276 259.636C693.015 266.011 690.469 272.295 688.667 278.814C683.949 295.895 681.651 319.656 684.497 334.726L707.553 294.351H707.554Z" fill="#374E34"/>
<path d="M1021.79 197.237C1014.72 186.78 1016 171.943 1016.02 159.007C1016.03 149.664 1017.06 140.357 1018.09 131.07C1021.91 96.5333 1025.74 61.9937 1029.57 27.4541C1039.38 43.6578 1050.51 60.7366 1051.33 79.6621C1052.08 97.0883 1044.86 113.739 1041.36 130.828C1036.53 154.427 1037.38 178.867 1021.79 197.237Z" fill="#374E34"/>
<path d="M1018.2 189.633C1005.66 179.877 999.78 165.941 995.925 150.528C993.493 140.802 991.357 131.001 989.526 121.145C986.607 105.435 984.457 89.5949 982.309 73.7602C980.711 61.9779 979.114 50.1942 977.515 38.4119C991.826 59.3297 1006.51 79.2167 1010.18 104.294C1011.43 112.815 1011.36 121.466 1011.92 130.061C1013.32 151.309 1012.91 169.005 1018.2 189.633Z" fill="#97813A"/>
<path d="M1020.09 255.235C1019.96 243.953 1019.32 230.481 1020.53 218.303C1020.57 217.81 1020.29 217.424 1020 217.823C1015.39 204.869 1008.13 192.863 998.8 182.762C998.066 181.969 997.301 181.173 996.339 180.68C995.667 180.338 994.662 180.323 993.594 180.474C990.963 180.847 988.855 182.811 988.037 185.341C986.268 190.835 986.048 196.822 986.812 202.574C987.752 209.652 990.109 216.458 992.624 223.143C995.294 230.243 1002.42 234.075 1007.69 239.525C1012.19 244.17 1017.11 249.987 1020.09 255.233L1020.09 255.235Z" fill="#8EFF33"/>
<path d="M987.108 195.184C992.61 194.067 1003.02 189.238 1003.02 189.238M987.796 205.474C987.796 205.474 990.67 204.445 992.387 203.706C997.783 201.38 1003.18 199.056 1008.57 196.728M990.397 215.592L1013.77 204.813M993.464 224.406C1001.33 221.854 1010.71 218.076 1018.15 214.472M1000.24 231.677C1005.57 229.314 1017.62 224.848 1017.62 224.848M1008.3 237.976L1018.74 233.67M995.06 183.331L1018.15 240.441M988.324 188.314L1009.4 240.441" stroke="#F48035" stroke-width="1.33398" stroke-miterlimit="10" stroke-linecap="round"/>
<path d="M1022.71 267.846C1024.25 246.429 1041.37 223.681 1047.43 216.248C1048.66 214.741 1050.71 214.203 1052.51 214.919L1056.07 216.324C1058.14 217.144 1059.29 219.366 1058.75 221.53C1056.86 229.12 1052.51 246.026 1049.86 252.178C1044.62 252.513 1039.75 253.865 1034.91 255.917C1032.77 256.826 1030.61 257.974 1029.31 259.907C1028.63 260.932 1028.23 262.117 1027.84 263.283C1027.27 265.017 1026.69 266.75 1026.11 268.482C1026 268.815 1025.87 269.174 1025.57 269.348C1025.36 269.471 1025.11 269.481 1024.87 269.463C1023.82 269.388 1023.3 268.717 1022.71 267.847V267.846Z" fill="#8EFF33"/>
<path d="M1050.96 216.166L1030.64 252.194" stroke="#F48035" stroke-width="1.33398" stroke-miterlimit="10" stroke-linecap="round"/>
<path d="M1056.36 217.956L1041.62 249.255M1045.97 219.719C1050.45 221.494 1052.86 222.451 1057.34 224.226M1041.62 225.359C1046.09 227.133 1050.5 228.878 1054.97 230.651M1037.31 231.428C1042.58 233.605 1053.63 237.948 1053.63 237.948M1034.02 236.928C1039.28 239.106 1051.66 244.195 1051.66 244.195M1031.35 243.302C1036.61 245.479 1049.7 250.117 1049.7 250.117" stroke="#F48035" stroke-width="1.36908" stroke-miterlimit="10" stroke-linecap="round"/>
<path d="M1025.84 327.387C1029.82 311.038 1035.95 293.86 1043.2 278.672L1028.88 254.747C1026.39 261.683 1025.08 268.425 1024.1 275.731L1025.84 327.387Z" fill="#374E34"/>
<path d="M1030.96 254.742C1036.3 253.607 1042.32 250.584 1047.77 250.999C1053.21 251.413 1058.72 253.398 1062.4 257.427C1070.07 265.819 1067.32 279.02 1069.94 290.078C1071.21 295.409 1073.83 300.493 1073.93 305.972C1074.05 313.011 1070.03 319.37 1066.15 325.248C1066.91 314.997 1059.61 304.301 1053.82 295.803C1046.58 285.16 1039.86 274.157 1033.71 262.846C1032.44 260.528 1030.44 257.042 1028.88 254.906L1030.96 254.74L1030.96 254.742Z" fill="#DAC857"/>
<path d="M1042.87 252.696C1047.45 257.844 1051.24 263.693 1054.07 269.978C1056.31 274.952 1057.94 280.172 1059.56 285.379C1061.49 291.542 1063.41 297.705 1065.34 303.866C1067.32 310.242 1067.6 318.731 1066.15 325.25" stroke="#97813A" stroke-width="1.33398" stroke-miterlimit="10" stroke-linecap="round" stroke-linejoin="round"/>
<path d="M970.82 227.311C974.641 228.542 978.207 230.557 981.234 233.194C985.121 236.579 988.061 240.911 991.664 244.598C996.427 249.472 1002.36 253.19 1008.83 255.348C1012.23 256.483 1018.05 255.062 1021.05 257.025C1013.03 241.248 996.321 226.894 981.17 217.75L970.822 227.311H970.82Z" fill="#374E34"/>
<path d="M981.168 217.75C977.93 221.125 974.517 224.338 970.953 227.37C968.887 229.126 966.764 230.825 964.858 232.756C961.087 236.574 958.252 241.202 955.451 245.782C950.55 253.8 945.592 261.953 943.083 271.009C941.794 262.561 939.66 253.62 939.999 245.079C940.535 231.677 953.279 223.702 963.013 214.47C969.184 214.47 975.102 216.621 981.169 217.75H981.168Z" fill="#DAC857"/>
<path d="M943.13 272.125C942.782 275.893 944.064 261.795 944.978 254.559C945.553 250.02 946.191 245.462 947.556 241.097C949.182 235.887 951.881 231.018 955.437 226.875C959.504 222.137 964.607 218.417 969.659 214.743" stroke="#97813A" stroke-width="1.33398" stroke-miterlimit="10" stroke-linecap="round" stroke-linejoin="round"/>
<path d="M1001.73 285.092C996.976 286.175 993.604 295.087 989.702 298.548C987.375 300.614 984.812 302.398 982.454 304.431C976.415 309.64 971.799 316.48 969.226 324.027C967.615 322.557 964.279 317.23 963.454 313.386C962.758 310.141 962.485 306.755 963.137 303.498C963.643 300.966 964.696 298.571 965.947 296.311C968.674 291.386 972.382 287.009 976.788 283.509C984.966 283.774 993.55 284.825 1001.73 285.089V285.092Z" fill="#DAC857"/>
<path d="M1001.73 285.092C1004.38 287.264 1006.31 291.03 1007.95 294.038C1009.34 296.59 1010.31 299.352 1011.17 302.126C1014.57 312.975 1016.86 324.787 1024.58 333.138C1018.09 328.931 1012.98 325.396 1007.94 319.522C1004.78 315.834 1002.12 311.535 998.086 308.834C990.52 303.769 985.727 303.769 982.245 304.516C987.056 301.398 992.147 295.535 996.078 289.451C997.943 286.559 999.575 285.666 1001.73 285.09L1001.73 285.092Z" fill="#374E34"/>
<path d="M969.236 323.894C967.327 315.393 969.426 306.079 974.797 299.22C976.504 297.038 978.51 295.111 980.381 293.07C982.992 290.227 985.358 287.158 987.443 283.91" stroke="#97813A" stroke-width="1.33398" stroke-miterlimit="10" stroke-linecap="round" stroke-linejoin="round"/>
<path d="M1046.24 345.044C1039.34 349.846 1035.18 356.798 1031.54 364.363C1027.9 371.929 1025.62 380.065 1023.48 388.184C1022.33 392.545 1025.35 397.97 1025.29 402.478C1028.86 395.204 1032.97 387.413 1036.93 380.343C1042.03 371.258 1059.12 353.009 1066.85 346.032L1055.51 346.892L1046.24 345.041L1046.24 345.044Z" fill="#374E34"/>
<path d="M1046.24 345.044C1052.19 351.55 1056.37 359.452 1061.63 366.531C1066.89 373.61 1079.33 385.153 1085.7 388.13C1086.12 374.834 1076.89 352.8 1067.04 343.864C1059.73 344.786 1053.52 346.124 1046.24 345.044Z" fill="#DAC857"/>
<path d="M1057.8 345.082C1068.78 359.336 1080.9 370.786 1085.7 388.13" stroke="#97813A" stroke-width="1.33398" stroke-miterlimit="10" stroke-linecap="round" stroke-linejoin="round"/>
<path d="M1020.09 188.312C1022.86 253.435 1024.42 334.262 1024.57 408.233" stroke="#374E34" stroke-width="3.99943" stroke-miterlimit="10"/>
<path d="M1224.34 408.233C1273.93 321.637 1356.65 270.288 1440.23 276.008V408.233H1224.34Z" fill="#194437"/>
<path d="M1096.5 408.233C1139.94 336.023 1217.27 301.228 1286.91 331.979C1315.05 344.403 1345.71 372.126 1358.39 408.233H1096.5H1096.5Z" fill="#194437"/>
<path d="M1159.89 345.367L1189.82 408.233M1183.4 332.298L1200.54 408.233M1235.6 323.545C1235.6 327.552 1238.91 378.37 1240.88 408.233M1111.36 389.752C1110.74 389.838 1111.68 389.006 1112.2 389.377C1119.94 394.928 1129.57 401.577 1139.22 408.233M1286.81 331.755L1338.17 408.233M1343.16 297.86C1346.16 332.088 1351.41 372.125 1357.55 408.233M1277.61 330.076L1268.5 408.233M1392.95 278.143L1430.19 408.233M1378.68 281.948L1416.51 408.233M1314.09 312.455C1314.58 318.18 1315.06 323.904 1315.55 329.631C1316.37 339.312 1317.2 348.994 1318.02 358.676C1318.59 365.3 1319.15 371.927 1319.79 378.546M1422.99 276.524C1426.49 295.25 1434.96 330.619 1440.23 351.128M1213.13 324.853C1220.84 341.943 1228.97 358.846 1237.5 375.543" stroke="#195B4A" stroke-width="1.33398" stroke-miterlimit="10" stroke-linecap="round" stroke-linejoin="round"/>
<path d="M-1.00051 328.126C68.1032 285.945 149.635 275.303 225.929 307.732C267.381 325.352 311.941 361.147 338.425 408.234H-1.00195V328.127L-1.00051 328.126Z" fill="#194437"/>
<path d="M24.6562 315.382L48.5958 408.233M80.259 296.198C81.9142 334.071 82.6596 371.035 82.4996 408.233M52.6602 304.362C61.0702 327.684 70.9407 350.479 82.1925 372.572M118.557 290.52L111.361 408.233M162.415 293.89C154.607 331.852 147.586 369.978 141.361 408.233M148.17 368.198L214.235 304.1M241.241 317.84L207.624 408.233M257.12 408.233L287.543 348.758M278.468 408.233L309.171 368.198M333.117 408.233L335.354 405.099" stroke="#195B4A" stroke-width="1.33398" stroke-miterlimit="10" stroke-linecap="round" stroke-linejoin="round"/>
<path d="M353.886 408.233C398.655 348.729 468.468 322.346 531.91 350.359C555.058 360.58 579.909 381.155 595.059 408.233H353.886Z" fill="#194437"/>
<path d="M463.324 340.813L467.588 408.233M442.512 345.292C449.394 364.441 456.183 386.505 461.967 408.233M390.881 374.476L413.672 408.233M409.857 358.944C415.219 375.422 420.605 391.957 426.599 408.233M371.635 388.894L388.884 408.233M498.792 340.889C496.875 363.377 494.535 385.83 491.775 408.233M526.56 348.136L511.261 408.233M554.646 408.233C560.915 402.448 567.877 395.872 576.762 387.416M588.205 408.233L590.685 406.67" stroke="#195B4A" stroke-width="1.33398" stroke-miterlimit="10" stroke-linecap="round" stroke-linejoin="round"/>
<path d="M1162.62 215.398L1163 222.005M1166.73 221.656L1167.48 217.633M1157.15 217.816C1157.76 219.49 1158.36 221.163 1158.96 222.837M1213.84 271.868C1213.85 273.279 1214.01 274.691 1214.32 276.067M1218.08 271.101C1218.08 273.017 1218.08 274.934 1218.08 276.85M1105.76 258.836C1105.76 260.88 1105.76 262.924 1105.76 264.968M1111.86 260.359C1111.49 261.898 1111.12 263.433 1110.76 264.971M1100.35 261.916C1100.72 263.198 1101.09 264.48 1101.46 265.761M1115.34 321.311C1115.34 323.483 1115.34 325.654 1115.34 327.827M1119.49 328.193C1119.88 326.534 1120.28 324.876 1120.67 323.217M1109.51 322.862C1109.87 324.527 1110.24 326.194 1110.6 327.859M1391.89 214.094C1392.91 215.641 1393.6 217.404 1393.89 219.23M1397.33 210.041C1397.54 213.275 1397.75 216.51 1397.96 219.742M1401.57 215.142C1401.57 216.504 1401.57 217.866 1401.57 219.23M1415.79 237.638C1416 239.335 1416.22 241.035 1416.44 242.731M1419.87 233.035C1420.09 235.928 1420.31 238.82 1420.52 241.712M1373.49 262.663C1373.82 264.367 1374.14 266.074 1374.47 267.781M1378.43 257.566C1378.62 261.142 1378.8 264.719 1378.99 268.296M1383.68 262.669C1383.68 264.371 1383.68 266.077 1383.68 267.779M1159.81 288.733C1159.81 287.199 1159.81 285.667 1159.81 284.135M1164.4 281.068C1164.3 283.12 1164.5 285.188 1165 287.181M963.034 368.456C963.034 370.5 963.034 372.544 963.034 374.588M967.634 365.901C967.634 368.799 967.634 371.694 967.634 374.588M994.241 396.551C994.785 397.902 995.33 399.252 995.875 400.601M999.835 400.143C999.835 397.245 999.835 394.35 999.835 391.454M1003.84 401.155C1004.06 399.286 1004.28 397.421 1004.51 395.551M907.836 288.735C907.719 290.492 908.045 292.28 908.772 293.883M914.341 285.167C914.547 288.061 914.755 290.953 914.961 293.847M919.607 293.332C919.405 291.449 919.568 289.528 920.085 287.707M975.316 256.535C975.842 258.353 976.008 260.276 975.798 262.157M979.521 254.476C979.858 257.032 980.192 259.587 980.53 262.146M1097.02 212.573C1097.47 214.63 1097.92 216.69 1098.37 218.747M1102.62 208.505C1102.38 211.577 1102.46 214.672 1102.83 217.731M787.727 276.469V270.315M793.861 276.98V269.827M808.173 348.527V342.905M813.285 348.015V337.794M819.418 349.036V344.437M717.195 351.592V357.214M722.818 349.549V357.231M764.217 390.944V396.589M769.84 385.833V396.613M776.484 390.944V395.655M592.485 338.305V343.415M598.619 334.216V344.486M614.463 382.764V376.631M620.596 382.254V374.061M629.796 383.787V378.142" stroke="#374E34" stroke-width="1.33398" stroke-miterlimit="10" stroke-linecap="round" stroke-linejoin="round"/>
</g>
<defs>
<clipPath id="clip0_11_35">
<rect width="1442" height="409" fill="white" transform="translate(-1)"/>
</clipPath>
</defs>
</svg>
